<svg id="Layer_1" data-name="Layer 1" xmlns="http://www.w3.org/2000/svg" viewBox="0 0 113.83 114.31"><defs><style>.cls-1{fill:#1d1d1b;}.cls-2{fill:#fff;}.cls-3{fill:#e30613;}.cls-4{fill:none;}</style></defs><circle class="cls-1" cx="56.33" cy="57.55" r="55.34"/><path class="cls-1" d="M281.27,227.91c0,.53.3.34.36.42C281.52,227.44,281.19,227.93,281.27,227.91Z" transform="translate(-167.8 -170.77)"/><polygon class="cls-1" points="111.99 48.54 112.14 48.67 111.64 47.47 111.99 48.54"/><path class="cls-1" d="M278,211.44c-.3.89.82,2.81,1,4.25L279,216l.58.54A51.08,51.08,0,0,1,278,211.44Z" transform="translate(-167.8 -170.77)"/><path class="cls-1" d="M277.6,207c-.1.34-.49-.82.29,1a1.49,1.49,0,0,1,0-.19C277.82,207.59,277.73,207.36,277.6,207Z" transform="translate(-167.8 -170.77)"/><path class="cls-1" d="M277.88,207.76c.31.81,0-.6,0,0Z" transform="translate(-167.8 -170.77)"/><path class="cls-1" d="M276.21,204.12l.66.95c0-.26-.4-1.2-.16-.89C276.11,203.16,276.1,203.43,276.21,204.12Z" transform="translate(-167.8 -170.77)"/><path class="cls-1" d="M275.39,203.31l.32.5C275.72,203.69,275.66,203.54,275.39,203.31Z" transform="translate(-167.8 -170.77)"/><path class="cls-1" d="M276.41,204.86l-.7-1.05c0,.18-.15.27.31.49C275.83,204.27,276.07,204.43,276.41,204.86Z" transform="translate(-167.8 -170.77)"/><path class="cls-1" d="M276.64,205.54c.19.61.38,1.41-.21.43.45,1,.68,1.39.75,1.28A3.42,3.42,0,0,0,276.64,205.54Z" transform="translate(-167.8 -170.77)"/><path class="cls-1" d="M277.34,211.22a5.85,5.85,0,0,1,.11.84l.35.64a3.92,3.92,0,0,1-.22-.9C277.51,211.45,277.41,211.17,277.34,211.22Z" transform="translate(-167.8 -170.77)"/><path class="cls-1" d="M273.05,197.73c-.13,0-.05.49-.13.64l.54.65C273.31,198.61,272.94,197.87,273.05,197.73Z" transform="translate(-167.8 -170.77)"/><path class="cls-1" d="M272.92,198.37l-.82-1C272.66,198.37,272.85,198.49,272.92,198.37Z" transform="translate(-167.8 -170.77)"/><polygon class="cls-1" points="106.97 32.62 108.23 34.29 106.79 32.27 106.97 32.62"/><polygon class="cls-1" points="102.53 22.96 103.17 23.38 102.08 22.59 102.53 22.96"/><path class="cls-1" d="M268.33,191.22c.52.26-.21-.78.27-.45a12.09,12.09,0,0,0-1.84-1.44A8,8,0,0,1,268.33,191.22Z" transform="translate(-167.8 -170.77)"/><path class="cls-1" d="M265.82,188.67a10.92,10.92,0,0,0,.94.66A6.33,6.33,0,0,0,265.82,188.67Z" transform="translate(-167.8 -170.77)"/><path class="cls-1" d="M271,195.59a1.64,1.64,0,0,0-.33-1l0,.58Z" transform="translate(-167.8 -170.77)"/><path class="cls-1" d="M270.67,195.21v0l-.63-.86Z" transform="translate(-167.8 -170.77)"/><path class="cls-1" d="M271,195.69l-.07-.1C271,195.65,271,195.68,271,195.69Z" transform="translate(-167.8 -170.77)"/><path class="cls-1" d="M273.52,200.37c-.54-.54-1.49-1.73-1-.34C273,200.36,272.72,199.56,273.52,200.37Z" transform="translate(-167.8 -170.77)"/><path class="cls-1" d="M271.07,196.41c.24.37.42.77.64,1.16.06-.07,0-.34.3-.08C271.69,197.13,271.41,196.75,271.07,196.41Z" transform="translate(-167.8 -170.77)"/><polygon class="cls-1" points="102.8 25.17 103.27 25.64 103 25.23 102.8 25.17"/><path class="cls-1" d="M267.14,190.57a10.41,10.41,0,0,1-1.42-1.3c.47.6,1,1.21,1.48,1.76C267.34,191,267.7,191.17,267.14,190.57Z" transform="translate(-167.8 -170.77)"/><path class="cls-1" d="M268.9,192.79l-.09-.09C268.84,192.78,268.87,192.83,268.9,192.79Z" transform="translate(-167.8 -170.77)"/><polygon class="cls-1" points="92.87 13.66 92.92 13.79 92.97 13.76 92.87 13.66"/><path class="cls-1" d="M267.24,191.16a2.71,2.71,0,0,0,.92.85c-.32-.3-.64-.62-1-1C267.13,191,267.1,191,267.24,191.16Z" transform="translate(-167.8 -170.77)"/><path class="cls-1" d="M264.36,187.36c.18.24.38.51.58.82C264.82,187.88,264.5,187.36,264.36,187.36Z" transform="translate(-167.8 -170.77)"/><path class="cls-1" d="M268.76,192.49l.07.06C268.77,192.35,268.76,192.39,268.76,192.49Z" transform="translate(-167.8 -170.77)"/><path class="cls-1" d="M268.76,192.49a3.93,3.93,0,0,0-.6-.48c.23.26.45.49.65.69A2.09,2.09,0,0,1,268.76,192.49Z" transform="translate(-167.8 -170.77)"/><path class="cls-1" d="M257.73,184.78c.13-.09.53,0,1,.3a4.42,4.42,0,0,1,.73.51,4.58,4.58,0,0,1,.62.75c1.06.66,1.11-.61.63-1.78-.12.08-.16.12-1.32-.51.31.35,1.95,2.16,1,1.63a6.73,6.73,0,0,1-1.1-.94,5.07,5.07,0,0,0-.48-.66c.34.71-2.07-.88-2.09-.21l1.3.73C258,184.68,257.45,184.47,257.73,184.78Z" transform="translate(-167.8 -170.77)"/><path class="cls-1" d="M262.55,186.26l.42.34a9.77,9.77,0,0,1-1.12-1.56c-.76-.5-1-.54-1.08-.51l1.94,1.83Z" transform="translate(-167.8 -170.77)"/><path class="cls-1" d="M264.74,188.26c-.49-.11-1.57-.84-1.22-.07,1.14,1.07,1,.6,1.7,1.19-1.77-1.83.62.41-.49-1.08.38.34.7.66,1,1-.28-.37-.54-.74-.78-1.09l0,.06h0c0,.11,0,.15,0,.05l0,0a.29.29,0,0,1-.16,0c-.46-.6,0-.15.16,0h0c-.6-.61-1.33-1.09-2-1.64C263.33,187,263.88,187.42,264.74,188.26Z" transform="translate(-167.8 -170.77)"/><path class="cls-1" d="M271.27,199.24c0-.08,0-.09,0-.11S271.12,199,271.27,199.24Z" transform="translate(-167.8 -170.77)"/><path class="cls-1" d="M270.9,198.26a1.89,1.89,0,0,1,.6.72c.18.49-.13.07-.21.15.26.26.85,1,.4-.09l-.13-.13a6.38,6.38,0,0,1-.65-2.14A3.8,3.8,0,0,0,270.9,198.26Z" transform="translate(-167.8 -170.77)"/><path class="cls-1" d="M268,193.12a17.44,17.44,0,0,0-1.48-1.5l.51,1,.09-.15C267.82,193.4,267.79,193.1,268,193.12Z" transform="translate(-167.8 -170.77)"/><path class="cls-1" d="M260.59,184.15l.43-.07c-.4-.17-.86-.26-1.28-.39Z" transform="translate(-167.8 -170.77)"/><polygon class="cls-1" points="90.54 11.74 90.8 11.56 90.1 11.26 90.54 11.74"/><path class="cls-1" d="M178.08,255.59l.38.46A3.25,3.25,0,0,0,178.08,255.59Z" transform="translate(-167.8 -170.77)"/><path class="cls-1" d="M176.08,251.83l-.18,0C176.06,251.94,176.15,252,176.08,251.83Z" transform="translate(-167.8 -170.77)"/><path class="cls-1" d="M194.05,179.72c-.93.24-2.05.42-1.77.64l.42.13A6.31,6.31,0,0,1,194.05,179.72Z" transform="translate(-167.8 -170.77)"/><path class="cls-1" d="M169.94,217.45l.14-.23-.16-.65C169.93,216.84,169.9,217.13,169.94,217.45Z" transform="translate(-167.8 -170.77)"/><path class="cls-1" d="M171.17,218.32l-.38,1.09A7.55,7.55,0,0,0,171.17,218.32Z" transform="translate(-167.8 -170.77)"/><path class="cls-1" d="M194,272.21c.25,0,.49.09.75.11C193.91,271.73,194.21,272.11,194,272.21Z" transform="translate(-167.8 -170.77)"/><path class="cls-1" d="M232.25,171.85a15,15,0,0,0-1.93-.5C231.24,171.68,232,172.08,232.25,171.85Z" transform="translate(-167.8 -170.77)"/><path class="cls-1" d="M174.18,255.82c.26.3.4.41.46.36C174.38,255.87,174.21,255.71,174.18,255.82Z" transform="translate(-167.8 -170.77)"/><path class="cls-1" d="M228,171.2l.41.1a9.2,9.2,0,0,1,1.87,0A4.26,4.26,0,0,0,228,171.2Z" transform="translate(-167.8 -170.77)"/><path class="cls-1" d="M268.47,258.24a.86.86,0,0,1,.13-.14S268.53,258.13,268.47,258.24Z" transform="translate(-167.8 -170.77)"/><path class="cls-1" d="M280.33,235.88c0,.26-.08.68-.14,1.07A5.37,5.37,0,0,0,280.33,235.88Z" transform="translate(-167.8 -170.77)"/><path class="cls-1" d="M248.83,176.59c.54.24.1,0,0,0Z" transform="translate(-167.8 -170.77)"/><path class="cls-1" d="M250.81,179a.31.31,0,0,0-.28,0A.44.44,0,0,1,250.81,179Z" transform="translate(-167.8 -170.77)"/><path class="cls-1" d="M222.22,173.13h-.05C222.34,173.19,222.31,173.18,222.22,173.13Z" transform="translate(-167.8 -170.77)"/><path class="cls-1" d="M249.57,177.11c-.18-.13-.4-.27-.64-.41C249,176.77,249.22,176.9,249.57,177.11Z" transform="translate(-167.8 -170.77)"/><path class="cls-1" d="M249.53,176.92l.45.26C250.07,177.16,250,177.1,249.53,176.92Z" transform="translate(-167.8 -170.77)"/><path class="cls-1" d="M248.08,176.25a7.51,7.51,0,0,1,.85.45c-.1-.07-.13-.11-.1-.11Z" transform="translate(-167.8 -170.77)"/><path class="cls-1" d="M231.25,282.16h.13C231.92,282,231.67,282,231.25,282.16Z" transform="translate(-167.8 -170.77)"/><path class="cls-1" d="M184.71,191.75l0-.06-.06.06Z" transform="translate(-167.8 -170.77)"/><path class="cls-1" d="M183.55,193.39a2.88,2.88,0,0,1,1.13-1.64l-1.14-.14Z" transform="translate(-167.8 -170.77)"/><path class="cls-1" d="M184.16,263.76l-.71-1.22c1.49.92,2.16,1.91,1.6.68-.22.14-.56,0-1-.37a7.6,7.6,0,0,1-1.28-1.35c-.82-1.06-1.64-2.11-2.11-1.9l-.38-.85c.15.21.23.21.37.42-.67-1.69-1.38-.65-2.48-2.71-.35-.73-.52-1.28-.13-.87l-1.15-1.41c-.24-.46,0-.43.22,0-.48-.77-.85-1.61-1.29-2.41h0a17.42,17.42,0,0,1-1.21-1.33c-.17-.69.25.27.29.06-.29-.43-.61-.84-.87-1.28,0-.35.19-.24.4.06a6,6,0,0,1,.76,1.27,1.48,1.48,0,0,0-.37-1.51,5.83,5.83,0,0,1-.93-2.59l.61,1.29c.22-1.07-.35-2-.55-3.62-.06.39.24,3.29-.56,1.84a5.3,5.3,0,0,0-.75-1.82c.34-.11.05-.92-.24-2l.48-.05c-.42-1.09-.64-.94-1-1.56-.28-1.27,0-1.61.29-2-.24-2.06-.37,1.53-.83-.88a12.41,12.41,0,0,0-.34-2.37c-.17-.76-.46-1.56-.61-2.59.1-1.23.3.19.41-.26l-.43-1.05c0-.27.12-.19.18-.15-.2-.9-.49-.05-.69-1.48-.26-.19-.15-.94.05-1.85a5.94,5.94,0,0,0,.21-2.89c.16-.43.28.23.47.1-.27-2.45-.23-2.1-.43-4.15l.57-1.65c-.54,1.19-.72-.46-.85-2-.24.42-.45.78-.56,1a16.25,16.25,0,0,1,.19-2.32c.14-.26.25,0,.35.41v-.43c.38-.76.54-.28.66.34l-.49.74c.2.62.43,1.19.73,1.13a3.51,3.51,0,0,1,0-.76c.06.16.11.27.17.21s0-.32,0-.7l.65-.38-.18-.17,1.05-2.75,0-1.62c0-.53.07-1.08.13-1.67a17.67,17.67,0,0,1,.85-4.12c0,.91.52.41.92.64-.81.65-.7,2.5-1.4,4.07.36-.82.5-.56.5-.33l.63-3c.32.21.48-.51,1-1.15-.95.24.55-2.28.89-3.52.25.05.35.44-.36,1.78,1.25-1.24.1-2.4,1.42-3.58-.19.32-.33.47-.29.66.26-.86,1.53-2.6,1.45-2l-.19.32c.34-.52.76-1.18,1.18-1.89s1-1.39,1.43-2.08c.91-1.35,1.57-2.58,1.47-2.9a2.77,2.77,0,0,1,.39.94c.4-1.57.89-3.13,1.4-4.77.13.67,2.08.47.92,2.2a11,11,0,0,0,1.74-1.86c-.35.2-1.29.12-.93-.3a16.83,16.83,0,0,0,2.75-1.35c-.53.32-.61-.77.13-1.4,0,.2.61.59.41.89l.61-1.12c.2-.37.45-.7.68-1.06-.39.48.36.62.93.5-.3,0,1.65-1.21,2.1-1.66l-.92.45c2.19-1.53,1.5-2.51,3.84-3.91-.2.33-.13,1.34,1.07.73a12.27,12.27,0,0,1,1.06-2,9.33,9.33,0,0,1,2.46-2.48l.52,0a14.4,14.4,0,0,1,1.61-1c-.45.46-1.23,1.44-2.08,2.38s-1.73,1.9-2.36,2.52c1-.28.38.13,1.71-.54.58,0-.57.67-.95.87l3.16-1.36c-.17-.2.37-.6.93-1s1.16-.66,1-.84a31.63,31.63,0,0,0-3.23,2c-.18-.19.15-.75.83-1.39a6.82,6.82,0,0,1,1.26-1,9.44,9.44,0,0,1,1.68-.72c.66,0-.13,1,0,1.14a7.79,7.79,0,0,1,2.34-1.08l-.89.61a4.87,4.87,0,0,0,1.66-.82,3.45,3.45,0,0,1,2-.52c.56-.11,1.8.2,1.82-.11-1-.33-1.67-2-1.14-2.58l1.74-.11a8.25,8.25,0,0,1,2.13.13c1,.3-1.23,1.27-.35,1.53,0-.14.49-.39.7-.47.61,0-.18.45,1.1.2.14-.54,2.64-.36.55-.52a5.1,5.1,0,0,1,1.34-.21l1.52-.08c-.52-.3,1.27-1.19,2.59-1.4-.07.14.23.29.37.36l1.81,0c.55,0,1.06.11,1.56.17,1,.11,2,.22,3.21.28.22.13,1.39.36.87.54a4.33,4.33,0,0,1,1.45-.06c1.4.66-1.68-.19-.64.51.13-.28,2-.11,3.1-.13-.26-.5-2.48-.47-3.57-.45.05-.63,2-1,4.71-.88,1.06.06,1.25.29,1.24.38s-.23.17-.05.17a9.49,9.49,0,0,0,3.58.46,4.69,4.69,0,0,1,3,.74c1.09.83-.21.77,0,1.15a10.57,10.57,0,0,1-1.93-.77,10.35,10.35,0,0,0-1.58-.58l1.32.53a6.72,6.72,0,0,1-2.25-.45c1,.51,6.32,1.91,8.88,3.55.54.11,1.43.38,1.1.05l-.88-.36c-.66-.68,1.82.37.79-.29.63.17,1.31.34,2,.58.36.13.73.27,1.11.44a8.53,8.53,0,0,1,1.09.72l.07.57a3,3,0,0,0-1.39-1c.76.21,2.06,2,3.09,1.89l-.93-.93c1.21.5,2.94.84,4.14,2-.34-.81-.32-.19-1-1.31.5,1.08-3.58-2.22-2.56-.78a4.25,4.25,0,0,0-1.22-1.24,17.73,17.73,0,0,1-1.54-1.27c0,.16.36.5-.85-.16a1.94,1.94,0,0,1-.33,0l-.08,0,.06,0c-.07,0-.07,0,0,0a2,2,0,0,1,.53.51c-.77,0-2.73-.94-3.46-1.09-.7-.42.37,0,0-.36a7.93,7.93,0,0,0-1.12-.18c0-.35-1.83-1.27.06-.78l-1.63-.62a10.39,10.39,0,0,0-3.08-1.23c-.77-.28-2.11-.16-1.34-.23l-2.7-.48v-.09a22.6,22.6,0,0,0-4.12-.58,38.64,38.64,0,0,1-4.38-.75,18.76,18.76,0,0,1-3.36-.07l-.29-.31-2.25,0a4.65,4.65,0,0,0-1.75.17,3.45,3.45,0,0,0-1.47-.28c-.32,0-.66,0-1,0s-.72.1-1.1.16c-1.51.27-3.09.63-4.12.72v.39a27,27,0,0,0-4.32,1.3l.19.3c-1.39.55-3.73.93-6,1.77a2.29,2.29,0,0,1,1.12-.42,7.88,7.88,0,0,0-2.14.52,16.8,16.8,0,0,0-1.93,1.1c-.63.39-1.24.78-1.85,1.12a16.39,16.39,0,0,1-1.85.82,4,4,0,0,1-1.33.81.63.63,0,0,0,.12-.1l-.22.13c-.28.1-.56.19-.86.31a5.42,5.42,0,0,0,.74-.23c-.42.26-1,.69-1.62,1.14l-.47-.14-.14.1c-.69.26-.4.44.08.47a3.42,3.42,0,0,0-.67.73c-.8-.13-1.42,1.3-2.43,1.28a9.08,9.08,0,0,1-1.47,1.49c-.61.68-1.18,1.39-1.11,1.75-.07,0-.25.07,0-.19a7.5,7.5,0,0,0-1.71,1.6l-.57-.1-.44.82-.38.86c-.92.6-1.34.83-.88-.21-1.33,2.29-1.28,1.69-2.31,3.68l-.17-.28c-.46.64-.89,1.88-1.37,2.11-1.65,1-4.95,7.12-7.19,11.07.6-.21.26.21-.11.77s-.75,1.26-.46,1.47c-.28.17-.61.72-.53,0-.58,2.25-1.59,3.16-1.38,4.89-.27.2-.17-.56-.35-.37a1.88,1.88,0,0,1-.19,1c-.18.2-.08-.38-.07-.76-.57,2.33,0,2.71.53,3a5.21,5.21,0,0,0-.53,1.36,3.43,3.43,0,0,0,.14,1.24c-.25.37-.56,1-.41-.44-.14.8-1.07,4.94-.55,5.07a3.48,3.48,0,0,0,0,1.36c-.13,1.84-.18,2-.22,3.8l.1-.5c.51.72.13,1.49.27,2.94l-.07,0a8.44,8.44,0,0,0,0,2.38,3.56,3.56,0,0,1,.06.69l0,.65,0,1,.33-.22c.82.19,0,2.93.58,4.77,0-.23.06-.47.09-.71a4.5,4.5,0,0,1,0,2,8,8,0,0,0-.19,2.11c0,.25-.2-.32-.33-.62.26,2.82.55.23,1.17,2.19-.13.44-.78-.28-.4,1.07a11.16,11.16,0,0,0,1.13,2.29c.28.51.56,1.07.79,1.61.11.28.21.55.29.81a6.22,6.22,0,0,1,.22.75c0-.46,0-.91.55-.11a19.53,19.53,0,0,1,.93,2.54,4.26,4.26,0,0,0,1.3,2.24c.05.19,0,.27,0,.3.72.88,2.11,3,2.74,3.36-.25.79,1,2.09,2,3.27.56.59,1.05,1.17,1.43,1.59s.54.76.32.94l2.36,2.51-.14,0a7.36,7.36,0,0,0,1.8,1.6,6,6,0,0,0,1.24.63c.32.4,0,.23-.09.25,2.18,2.37,2.6,2.42,5.06,3.59v.47a3.66,3.66,0,0,1,.87.64c.4.35.94.71,1.53,1.15s1.26.9,2,1.34a8.77,8.77,0,0,0,2.2,1.07s-.14.06-.39,0a16.17,16.17,0,0,1,2.59,1.2,28.24,28.24,0,0,0,2.57,1.39c1.69.78,3.17,1.35,4,.93a22.51,22.51,0,0,0,2.33.32c-2.87-.85.6-.46-.53-1,1.14.21,2.82,1.15,1.41.86l-.2-.12c-.7.53,3.54,1.2,3.38,1.58a64.69,64.69,0,0,0,17.28,1.12,7.78,7.78,0,0,1-.7-.47c.64-.05,1.28-.16,1.92-.24s.74.32-.64.51a3.53,3.53,0,0,0,2.29-.74c2.72-.19-.95.8-.12.68l1.12-.21-.27,0c.44-.18.67-.34,1-.47a4.64,4.64,0,0,1,.6-.2c.24-.08.55-.17,1-.27,1-.15.6.2,1,.12,0,0,.15,0,.63-.15l2.4-.57-1.07-.17c1-.46,2.22-.58,1-.74.9.14,3-.62,5.13-1.37s3.88-1.9,4.4-2A10.09,10.09,0,0,1,251,278c.31-.23.62-.46.95-.68.66-.44,1.38-.86,2.19-1.33-.45.17-.93-.11.45-.88,0,.56.73.33,1.55-.2a8.56,8.56,0,0,1,2.54-1.31c-.61.16.29-.55,1.1-1.23s1.44-1.44.56-1.08c1-.83.3.23,1.21-.27a21.2,21.2,0,0,1,1.77-1.78c.32-.3.67-.57,1-.88l1-1a28.1,28.1,0,0,0,3.88-4.29c-.07-.13-.62.27-.27-.52l1.77-1.28a2,2,0,0,0,.22-.87,2,2,0,0,1,.75-1.07c-.2.11-.49.28-.26-.19a38.83,38.83,0,0,0,5.45-10.36c.64-1.88,1.39-3.71,1.87-5.63.28-.95.58-1.89.9-2.83s.53-1.91.85-2.85c-.41,1-.33.3-.22-.5-.14.51-.32-.06-.51,0,.31-1.05.69-2.11.95-3.18-.46-.64.15-3.52-.31-3.88l0,1c-.49-1.38-1.34,1.85-2,1.58a2.62,2.62,0,0,1,.07,1.29,12.25,12.25,0,0,1-.48,1.5,6.46,6.46,0,0,0-.44,3.5c-.23.5-.16-.49-.37-.24.25.67.09,1.4-.39,2.71l0-.17a21.88,21.88,0,0,1-1.42,4.53l-.92,2.08a22.8,22.8,0,0,1-1.22,2.54l.46-.14a7.1,7.1,0,0,1-.9,1.3c0,1.19,1.16-2.34,1.28-1.22-.6.41-1.32,1.89-2,3.32a11.15,11.15,0,0,1-1.17,1.89,2.45,2.45,0,0,1-1,.94c-.74,1.22.57-.14-.18,1.08l-.38.2.05.47c-.52.79-1.09,1-1.25.9a8,8,0,0,0,.48-.75,25.75,25.75,0,0,0-2.29,3.06l.93-1c-.55.8-1.11,1.66-1.79,2.47l-2.14,2.37-1.07,1.2L261,267.42c-.74.72-1.44,1.45-2.06,2.17l.32-.07a9.15,9.15,0,0,1-.65.69c-.2.18-.38.32-.54.44a7,7,0,0,1-.85.55,16.06,16.06,0,0,0-2.33,1.65l.07-.11a6.18,6.18,0,0,1-1.85,1.48c.58-.58-1.49.46-.71-.27-2.51,1.88-1.15,1.06-2.68,2.6l-.56,0A5.35,5.35,0,0,1,247.2,278c1.07-.78-1.1.06.08-.86a10.48,10.48,0,0,0-2,.79c-.59.27-1.09.5-1.54.74a3.88,3.88,0,0,1-2.48.64c-1.19,1.26,2.85-.58,2.1-.13.77,0-1,1-2,1.26s-2-.42-4.6.28c.26-.06.26-.12.52-.19a5.06,5.06,0,0,0-1.45.4,7.74,7.74,0,0,1-.77.24,3.64,3.64,0,0,1-.88,0c-.59.56-1.57.21-1.67.83l2.4-.51c-1.33.36-2.54,1.25-4.88,1.26a6.81,6.81,0,0,1,1.28-.56c-.69-.09-1.26.35-2,.2.15-.54,2.94-.56,4.34-1.21-.74-.14-2.71.84-2.06.1a2.76,2.76,0,0,1-1.87.62,6.12,6.12,0,0,0-2.47.32l.1-.37a6.78,6.78,0,0,1-1.39.29l.92-.51c-1.43.46-2.79-.15-4.17-.06,1.45.07,1.61.17,1.57.31s-.31.33.31.43a4,4,0,0,1-2.89-.37,5.79,5.79,0,0,0-3.16-.67c.54,0,2,.32,1.15.45a9.24,9.24,0,0,1-1.21-.24,5.36,5.36,0,0,1-1-.39c-2.63-.33.35.42-.79.47-.84-.57-1.32,0-2.52-.07l.06-.35a8.36,8.36,0,0,0-.9-.17,4.16,4.16,0,0,0-.53-.09.67.67,0,0,0-.48.13c-.2.13-.36.27-1.67-.21l1.25-.19-1.42-.24.39-.32a9.83,9.83,0,0,1-1.79-.24,7.38,7.38,0,0,1-1.65-.62c.25.37-.39.56-1.68.1-.8-.52.6-.14-1.22-.76a1.81,1.81,0,0,1,1.7.44c.12-.09.47-.07.59-.15a13.91,13.91,0,0,0-2.95-1.14,3.44,3.44,0,0,1,.67.34c-.46-.09-.93-.15-1.39-.25l-1.35-.38c-.34-.31,0-.26.37-.21-.52-.21-.94-.23-1.7-.56.32-.17.41-.46,1.51-.09l-2.5-.84c-.11-.18-1-.91-.68-.85-1.13-.91-3.36-1.32-4.83-2.59a1.85,1.85,0,0,1-.66-.3c-.71-.57-1.33-1.17-2-1.74-.34-.29-.71-.56-1.1-.85a11.51,11.51,0,0,0-1.23-.89l-.55-1.21c-1.33-1,.78,1.61-1.44-.14-1.6-1.23-.25-.82-.63-1.41a9.08,9.08,0,0,1-3.32-3.1A14.13,14.13,0,0,1,184.16,263.76ZM173.47,246c.22.36.71,1,.61,1.38C173.54,247.13,173.6,246.72,173.47,246Zm-2.1-31.47a2.33,2.33,0,0,1-.4,1.25A5.13,5.13,0,0,1,171.37,214.56Zm71.37-40.16h-.05C241.83,173.94,242.13,174.11,242.74,174.4Zm1.81.83c.21,0,.22,0,.15-.1a2.85,2.85,0,0,1-1-.31C243.75,175,244,175.11,244.55,175.23Zm-6.84,108.18h-.39C238.14,283.1,237.92,283.25,237.71,283.41Z" transform="translate(-167.8 -170.77)"/><path class="cls-1" d="M171,218.21a.37.37,0,0,1-.22.14C170.84,218.52,170.91,218.53,171,218.21Z" transform="translate(-167.8 -170.77)"/><path class="cls-1" d="M193.91,272.18l.05,0a.1.1,0,0,0,.08,0Z" transform="translate(-167.8 -170.77)"/><path class="cls-1" d="M214.82,175.32a2.66,2.66,0,0,1-.77-.07C214,175.34,214.23,175.39,214.82,175.32Z" transform="translate(-167.8 -170.77)"/><path class="cls-1" d="M254.29,179.39l-1.15-.59a4.09,4.09,0,0,1,.93.7C254.09,179.41,254,179.18,254.29,179.39Z" transform="translate(-167.8 -170.77)"/><path class="cls-1" d="M261.64,187.77c.17.09.29.26.45.35l.08-.16C261.59,187.45,261.1,187.19,261.64,187.77Z" transform="translate(-167.8 -170.77)"/><path class="cls-1" d="M254.66,181c-.1.32.68.58,1.4,1.09l-.13-.1c.23-.09.13-.26-.13-.45A7.24,7.24,0,0,0,254.66,181Z" transform="translate(-167.8 -170.77)"/><path class="cls-1" d="M256.23,182.22a7.79,7.79,0,0,1,.65.48C257.07,182.62,256.64,182.47,256.23,182.22Z" transform="translate(-167.8 -170.77)"/><path class="cls-1" d="M247,176c.35.25.39-.24.56,0C248.13,175.79,244.79,175.19,247,176Z" transform="translate(-167.8 -170.77)"/><polygon class="cls-1" points="86.92 11.45 86.86 10.97 86.27 10.97 86.92 11.45"/><path class="cls-1" d="M248.9,178.58l1.2.7c0-.06.19,0,.4.05C249.73,179,248.92,178.47,248.9,178.58Z" transform="translate(-167.8 -170.77)"/><path class="cls-1" d="M250.5,179.33a7.29,7.29,0,0,0,1,.51A8.12,8.12,0,0,0,250.5,179.33Z" transform="translate(-167.8 -170.77)"/><polygon class="cls-1" points="85.24 10.56 84.93 10.28 84.11 9.75 85.24 10.56"/><path class="cls-1" d="M234.8,173.68l-1.53-.12c-.17.1.23.24.79.28C234.44,173.8,235,173.84,234.8,173.68Z" transform="translate(-167.8 -170.77)"/><path class="cls-1" d="M239,175.76a1.46,1.46,0,0,1-.57-.44l-.16.44Z" transform="translate(-167.8 -170.77)"/><path class="cls-1" d="M234.74,174.82c-.18.11-2.2.05-.34.3C234.58,175,236.06,175.18,234.74,174.82Z" transform="translate(-167.8 -170.77)"/><polygon class="cls-1" points="44.51 3.71 44.88 3.61 44.67 2.88 44.51 3.71"/><path class="cls-1" d="M195,183.72c1.57-.74.1-.61,1.56-1.23.25-.37-1.2.51-.92.16C194.81,183.36,194.28,183.55,195,183.72Z" transform="translate(-167.8 -170.77)"/><path class="cls-1" d="M195.61,182.65c.13-.11.26-.24.4-.38A2.52,2.52,0,0,0,195.61,182.65Z" transform="translate(-167.8 -170.77)"/><polygon class="cls-1" points="113.34 60.83 113.56 59.65 113.26 60.4 113.34 60.83"/><path class="cls-1" d="M280.69,229.31l.5-.27-.41-.71A2.6,2.6,0,0,1,280.69,229.31Z" transform="translate(-167.8 -170.77)"/><path class="cls-1" d="M173.47,242.81l-.13-.05a1.8,1.8,0,0,0,.08,1Z" transform="translate(-167.8 -170.77)"/><polygon class="cls-1" points="11.42 85.76 11.29 85.53 11.17 86.18 11.42 85.76"/><path class="cls-1" d="M187.47,265.91a11.19,11.19,0,0,1-1.17-1.11C187.07,265.58,187.2,266.38,187.47,265.91Z" transform="translate(-167.8 -170.77)"/><path class="cls-2" d="M232.67,258.07q-5.28,0-8.11-3c-1.88-2-2.83-4.84-2.83-8.47q0-9.18,7.28-19.36t13.54-10.17c1.89,0,3.53,1,4.9,3.07a11.56,11.56,0,0,1,2.06,6.52,6.76,6.76,0,0,1-.9,3.57c-.6,1-1.2,1.5-1.81,1.5-1.36,0-2.32-1.38-2.88-4.12-.64-3-1.55-4.43-2.75-4.43-2.43,0-5.32,2.9-8.64,8.69s-5,10.67-5,14.66,2.27,6,6.79,6q5.16,0,12.16-4.85c1.64-1.15,2.85-1.72,3.62-1.72s1.2.46,1.2,1.37q0,2.67-6.29,6.73A22.71,22.71,0,0,1,232.67,258.07Z" transform="translate(-167.8 -170.77)"/><path class="cls-2" d="M218.6,230.75c0-1.53-1.87-3.26-5.62-5.21q-7.14-3.64-9.65-5.85a6.42,6.42,0,0,1-2.52-4.9q0-7,7-11.6t11.44-4.61a6.87,6.87,0,0,1,4.13,1,4,4,0,0,1,1.29,3.41,2.37,2.37,0,0,1-.94,1.87,2.7,2.7,0,0,1-1.46.77,4.57,4.57,0,0,1-1.51-.53,5.31,5.31,0,0,0-1.47-.49c-1.18,0-3.55.86-7.14,2.57s-5.38,3.64-5.38,5.8a4.63,4.63,0,0,0,1.9,3.57,34.29,34.29,0,0,0,6.82,3.92,26.18,26.18,0,0,1,6.35,4.06,6.66,6.66,0,0,1,2.37,5.08q0,5.37-7.42,8.42a37.51,37.51,0,0,1-14.17,3q-5.69,0-5.69-3.87a2.07,2.07,0,0,1,1.28-2,5.83,5.83,0,0,1,2.58-.63,11,11,0,0,1,2,.35,9.81,9.81,0,0,0,1.9.35,29.81,29.81,0,0,0,8.36-1.3Q217.55,232.69,218.6,230.75Z" transform="translate(-167.8 -170.77)"/><path class="cls-3" d="M253.21,214.82c-.6.07-1.34-.33-2.23-1.22-.32-.32-.81-.9-1.47-1.73s-1.31-1.61-1.68-2l-1.23-1.23q-.54-.54-1-1l-.9-.89-1-.94a8.51,8.51,0,0,0-3,2.15A33.54,33.54,0,0,1,238,210.6a9.24,9.24,0,0,0-1.54,1.46c-.61.68-1.27.66-2-.07-.54-.53-.79-1-.75-1.36a2.59,2.59,0,0,1,.87-1.37c.29-.29,1.38-1.17,3.27-2.63q1.38-1.08,3.63-3c-.72-.87-1.89-2.11-3.49-3.72a6.29,6.29,0,0,0-1.29-.92,7.52,7.52,0,0,1-1.12-.78,1.8,1.8,0,0,1-.52-1.29,1.7,1.7,0,0,1,.49-1.3,2.2,2.2,0,0,1,1.07-.53,1.07,1.07,0,0,1,1,.19,9.75,9.75,0,0,1,1.23,1.5,10,10,0,0,0,1,1.21l3.94,3.57a6.87,6.87,0,0,0,1.7-1.24c.67-.67,1.78-1.88,3.31-3.6.63-.73,1.18-1.34,1.67-1.83a3.54,3.54,0,0,1,1.67-.89,1.59,1.59,0,0,1,1.6.32c.2.2.21.63,0,1.29a3,3,0,0,1-.6,1.32,36.71,36.71,0,0,1-2.78,2.44c-1.2,1-2,1.67-2.41,2.07a23.1,23.1,0,0,0-1.8,2,13.59,13.59,0,0,0,2.05,2.32l4.35,4.2a6,6,0,0,1,1.86,2.62C254.52,213.17,254.11,213.92,253.21,214.82Z" transform="translate(-167.8 -170.77)"/><path class="cls-4" d="M253.21,214.82c-.6.07-1.34-.33-2.23-1.22-.32-.32-.81-.9-1.47-1.73s-1.31-1.61-1.68-2l-1.23-1.23q-.54-.54-1-1l-.9-.89-1-.94a8.51,8.51,0,0,0-3,2.15A33.54,33.54,0,0,1,238,210.6a9.24,9.24,0,0,0-1.54,1.46c-.61.68-1.27.66-2-.07-.54-.53-.79-1-.75-1.36a2.59,2.59,0,0,1,.87-1.37c.29-.29,1.38-1.17,3.27-2.63q1.38-1.08,3.63-3c-.72-.87-1.89-2.11-3.49-3.72a6.29,6.29,0,0,0-1.29-.92,7.52,7.52,0,0,1-1.12-.78,1.8,1.8,0,0,1-.52-1.29,1.7,1.7,0,0,1,.49-1.3,2.2,2.2,0,0,1,1.07-.53,1.07,1.07,0,0,1,1,.19,9.75,9.75,0,0,1,1.23,1.5,10,10,0,0,0,1,1.21l3.94,3.57a6.87,6.87,0,0,0,1.7-1.24c.67-.67,1.78-1.88,3.31-3.6.63-.73,1.18-1.34,1.67-1.83a3.54,3.54,0,0,1,1.67-.89,1.59,1.59,0,0,1,1.6.32c.2.2.21.63,0,1.29a3,3,0,0,1-.6,1.32,36.71,36.71,0,0,1-2.78,2.44c-1.2,1-2,1.67-2.41,2.07a23.1,23.1,0,0,0-1.8,2,13.59,13.59,0,0,0,2.05,2.32l4.35,4.2a6,6,0,0,1,1.86,2.62C254.52,213.17,254.11,213.92,253.21,214.82Z" transform="translate(-167.8 -170.77)"/><path class="cls-3" d="M253.73,215.16c-.12.11,0,.14,0,.17C253.89,215.12,253.7,215.15,253.73,215.16Z" transform="translate(-167.8 -170.77)"/><path class="cls-3" d="M254.81,212.64l.05.05a1.4,1.4,0,0,0-.19-.43A1.31,1.31,0,0,1,254.81,212.64Z" transform="translate(-167.8 -170.77)"/><path class="cls-3" d="M253.57,210.49c0,.27.58.62.76,1v.08l.22.1C254.27,211.23,253.77,210.78,253.57,210.49Z" transform="translate(-167.8 -170.77)"/><path class="cls-3" d="M253,209.31c0,.11-.23-.14.19.22l0-.05Z" transform="translate(-167.8 -170.77)"/><path class="cls-3" d="M253.15,209.48c.19.18-.07-.16,0,0Z" transform="translate(-167.8 -170.77)"/><path class="cls-3" d="M252.33,208.74l.27.17c0-.07-.21-.27-.12-.22C252.22,208.49,252.24,208.56,252.33,208.74Z" transform="translate(-167.8 -170.77)"/><path class="cls-3" d="M252,208.62l.14.1S252.12,208.65,252,208.62Z" transform="translate(-167.8 -170.77)"/><path class="cls-3" d="M252.45,208.92l-.29-.2c0,.05,0,.09.13.09C252.23,208.83,252.31,208.84,252.45,208.92Z" transform="translate(-167.8 -170.77)"/><path class="cls-3" d="M252.57,209.07c.1.16.25.33,0,.16C253,209.63,253,209.48,252.57,209.07Z" transform="translate(-167.8 -170.77)"/><path class="cls-3" d="M253.36,210.52l.12.21.18.12C253.57,210.79,253.39,210.47,253.36,210.52Z" transform="translate(-167.8 -170.77)"/><path class="cls-3" d="M251,207.3s0,.15,0,.2l.2.13C251.1,207.53,251,207.35,251,207.3Z" transform="translate(-167.8 -170.77)"/><path class="cls-3" d="M251,207.5l-.3-.2C250.89,207.53,251,207.54,251,207.5Z" transform="translate(-167.8 -170.77)"/><polygon class="cls-3" points="84.05 37.95 84.55 38.25 83.96 37.88 84.05 37.95"/><polygon class="cls-3" points="82.23 35.6 82.43 35.67 82.08 35.52 82.23 35.6"/><path class="cls-3" d="M249.38,205.77c.15,0-.06-.23.08-.15a2.59,2.59,0,0,0-.54-.35A1.88,1.88,0,0,1,249.38,205.77Z" transform="translate(-167.8 -170.77)"/><path class="cls-3" d="M248.64,205.12l.28.15A1.51,1.51,0,0,0,248.64,205.12Z" transform="translate(-167.8 -170.77)"/><path class="cls-3" d="M250.26,206.88a.46.46,0,0,0-.12-.27l0,.17Z" transform="translate(-167.8 -170.77)"/><path class="cls-3" d="M250.16,206.79h0l-.21-.21Z" transform="translate(-167.8 -170.77)"/><path class="cls-3" d="M250.28,206.9l0,0S250.26,206.9,250.28,206.9Z" transform="translate(-167.8 -170.77)"/><path class="cls-3" d="M251.25,208c-.19-.1-.54-.35-.31,0C251.1,208.07,251,207.87,251.25,208Z" transform="translate(-167.8 -170.77)"/><path class="cls-3" d="M250.31,207.12l.25.27s0-.1.09,0Z" transform="translate(-167.8 -170.77)"/><polygon class="cls-3" points="82.36 36.24 82.51 36.34 82.42 36.24 82.36 36.24"/><path class="cls-3" d="M249,205.63a2.87,2.87,0,0,1-.42-.33c.14.16.29.32.44.47C249.08,205.76,249.19,205.79,249,205.63Z" transform="translate(-167.8 -170.77)"/><path class="cls-3" d="M249.57,206.2l0,0S249.56,206.21,249.57,206.2Z" transform="translate(-167.8 -170.77)"/><polygon class="cls-3" points="79.48 33.15 79.49 33.18 79.51 33.17 79.48 33.15"/><path class="cls-3" d="M249.05,205.81a.76.76,0,0,0,.27.21l-.28-.25S249,205.78,249.05,205.81Z" transform="translate(-167.8 -170.77)"/><path class="cls-3" d="M248.23,204.77c0,.08.1.16.15.24C248.35,204.93,248.27,204.78,248.23,204.77Z" transform="translate(-167.8 -170.77)"/><path class="cls-3" d="M249.52,206.12h0S249.52,206.09,249.52,206.12Z" transform="translate(-167.8 -170.77)"/><path class="cls-3" d="M249.52,206.12a.93.93,0,0,0-.2-.1,2.39,2.39,0,0,0,.22.16A.14.14,0,0,1,249.52,206.12Z" transform="translate(-167.8 -170.77)"/><path class="cls-3" d="M246.37,203.9a1.09,1.09,0,0,1,.61.58c.3.21.37-.18.31-.53,0,0-.1,0-.32-.15,0,.07.42.66.13.49-.35-.33-.24-.33-.3-.48,0,.2-.48-.31-.64-.27a2.61,2.61,0,0,0,.32.34S246.32,203.79,246.37,203.9Z" transform="translate(-167.8 -170.77)"/><path class="cls-3" d="M247.74,204.46l.11.1a2.37,2.37,0,0,1-.25-.46c-.2-.15-.26-.16-.29-.15l.48.54Z" transform="translate(-167.8 -170.77)"/><path class="cls-3" d="M248.32,205c-.16,0-.44-.23-.37,0,.31.31.28.15.49.31-.51-.49.19.1-.12-.31l.28.25-.22-.29v0h0s0,0,0,0h-.06c-.13-.16,0,0,.05,0h0l-.54-.47A6.27,6.27,0,0,0,248.32,205Z" transform="translate(-167.8 -170.77)"/><path class="cls-3" d="M250.51,207.92s0,0,0,0S250.45,207.86,250.51,207.92Z" transform="translate(-167.8 -170.77)"/><path class="cls-3" d="M250.34,207.67a.43.43,0,0,1,.23.15c.08.12,0,0-.06.07s.31.19.12-.07l0,0a1.56,1.56,0,0,1-.31-.55A1.08,1.08,0,0,0,250.34,207.67Z" transform="translate(-167.8 -170.77)"/><path class="cls-3" d="M249.29,206.36l-.46-.38.15.28,0,0C249.23,206.46,249.23,206.36,249.29,206.36Z" transform="translate(-167.8 -170.77)"/><path class="cls-3" d="M247.28,203.83h.13c-.1,0-.25-.13-.3-.11S247.21,203.79,247.28,203.83Z" transform="translate(-167.8 -170.77)"/><path class="cls-3" d="M247,203.55h.11l-.1,0A.43.43,0,0,1,247,203.55Z" transform="translate(-167.8 -170.77)"/><path class="cls-3" d="M239.1,200.19l.14.11Z" transform="translate(-167.8 -170.77)"/><path class="cls-3" d="M238.18,199.24h-.06C238.19,199.27,238.22,199.28,238.18,199.24Z" transform="translate(-167.8 -170.77)"/><path class="cls-3" d="M248.14,196.46c-.24.12-.54.23-.43.29h.13A1.68,1.68,0,0,1,248.14,196.46Z" transform="translate(-167.8 -170.77)"/><path class="cls-3" d="M239.23,197.23l0,.08.19.07Z" transform="translate(-167.8 -170.77)"/><path class="cls-3" d="M238.77,197.37l-.17-.33A2.09,2.09,0,0,0,238.77,197.37Z" transform="translate(-167.8 -170.77)"/><path class="cls-3" d="M239.77,206l-.09.22C239.92,206,239.78,206,239.77,206Z" transform="translate(-167.8 -170.77)"/><path class="cls-3" d="M252.11,198.62a4.41,4.41,0,0,0,.46-.32C252.33,198.43,252.1,198.5,252.11,198.62Z" transform="translate(-167.8 -170.77)"/><path class="cls-3" d="M237.93,200.63c.09.07.14.08.15.06S237.94,200.6,237.93,200.63Z" transform="translate(-167.8 -170.77)"/><path class="cls-3" d="M253.06,197.87l-.11.06a3.38,3.38,0,0,1-.38.37A1.26,1.26,0,0,0,253.06,197.87Z" transform="translate(-167.8 -170.77)"/><path class="cls-3" d="M246.89,208.07l0,.05S246.92,208.1,246.89,208.07Z" transform="translate(-167.8 -170.77)"/><path class="cls-3" d="M251,214.3l-.24-.21A2.25,2.25,0,0,0,251,214.3Z" transform="translate(-167.8 -170.77)"/><path class="cls-3" d="M248.55,201.81c-.11.11,0,0,0,0Z" transform="translate(-167.8 -170.77)"/><path class="cls-3" d="M247.71,202.08a.08.08,0,0,0,0-.08A.08.08,0,0,1,247.71,202.08Z" transform="translate(-167.8 -170.77)"/><path class="cls-3" d="M253.58,196.12h0S253.55,196.14,253.58,196.12Z" transform="translate(-167.8 -170.77)"/><path class="cls-3" d="M248.35,201.94l.16-.12A.52.52,0,0,0,248.35,201.94Z" transform="translate(-167.8 -170.77)"/><path class="cls-3" d="M248.4,202l-.1.1S248.32,202.07,248.4,202Z" transform="translate(-167.8 -170.77)"/><path class="cls-3" d="M248.72,201.66l-.21.16s.05,0,0,0Z" transform="translate(-167.8 -170.77)"/><path class="cls-3" d="M236.19,211.86l0,0C236.3,211.69,236.25,211.75,236.19,211.86Z" transform="translate(-167.8 -170.77)"/><polygon class="cls-3" points="78.28 29.6 78.29 29.58 78.27 29.59 78.28 29.6"/><path class="cls-3" d="M245.71,200.87a.92.92,0,0,1,.36-.5l-.36-.08A5.61,5.61,0,0,1,245.71,200.87Z" transform="translate(-167.8 -170.77)"/><path class="cls-3" d="M241.22,202.41,241,202c.38.17.92.83.51.2-.3.17-1.14-1.18-1.44-1L240,201c.05.06.07.05.12.11-.25-.5-.45-.12-.89-.66-.14-.19-.22-.35-.08-.26l-.43-.33c-.1-.12,0-.13.07,0a5.19,5.19,0,0,0-.63-.59h0l-.54-.19c-.16-.16.11,0,.08,0l-.43-.19c-.12-.18.26-.05.52.15a.46.46,0,0,0-.34-.36,1.21,1.21,0,0,1-.66-.43l.33.18c-.1-.3-.36-.41-.62-.72,0,.09.49.71.09.53a1.05,1.05,0,0,0-.45-.27c.08-.1-.16-.19-.25-.36l.14-.07c-.14-.15-.2-.11-.31-.21a.34.34,0,0,1,.18-.41c0-.41-.21.29-.21-.22a2,2,0,0,1,.45-.88c.25-.08,0,.1.11.1a1.53,1.53,0,0,1,.16-.22c.06,0,0,0,0,0,.19-.11,0-.17.31-.3,0-.07.17-.07.31,0a.87.87,0,0,1,.32.24.77.77,0,0,0,.22.15c0,.12-.11,0-.13.1.55.41.46.37,1,.71l.2.46c-.13-.37.28-.06.63.19,0-.14-.06-.26-.09-.33l.47.46c0,.08-.06.06-.17,0l.1.07c.1.22,0,.19-.21.12l-.08-.26c-.17-.06-.36-.12-.41,0a1,1,0,0,1,.17.15s-.08,0-.08,0,.07.07.17.13l0,.24.07,0a4.83,4.83,0,0,0,.52.76,8.11,8.11,0,0,1,1.93,1.06c-.27-.07-.18.12-.3.22-.08-.3-.61-.46-1-.82.18.19.09.2,0,.18l.78.5c-.1.07.08.19.22.39,0-.3.61.33.94.53,0,.07-.17.08-.49-.24.24.47.68.21.93.66-.08-.07-.12-.12-.18-.12a1.49,1.49,0,0,1,.4.33c.11.11.25.29.14.24l-.11-.1c.18.18.43.4.69.62.06.1.14,0,.22,0l.23-.13.44-.28c.45-.33.69-.64.68-.76a.94.94,0,0,1,.08.32,8.61,8.61,0,0,0,.44-1.45c.05.21.66.19.33.71a2.25,2.25,0,0,0,.5-.56c-.1.07-.39,0-.29-.1a4.31,4.31,0,0,0,.79-.44c-.15.11-.23-.24,0-.44,0,.07.22.18.17.28l.27-.71c-.08.16.16.18.32.12-.09,0,.42-.44.52-.6l-.25.18c.57-.56.24-.85.78-1.41,0,.11.11.4.4.14a3.45,3.45,0,0,1,.43-1.65l.15,0,.29-.46a12.71,12.71,0,0,1-.57,1.88c.24-.17.12,0,.41-.32.16-.06-.07.26-.16.35l.72-.7c-.15-.08.41-.7.28-.75l-.62.92c-.15-.06.08-.84.61-1.28.18,0,.09.31.14.35a1,1,0,0,1,.5-.42,1.68,1.68,0,0,0-.18.21c.3-.12.41-.48.88-.45.16,0,.44.13.44,0-.2-.17-.42-.73-.23-.91a2.08,2.08,0,0,1,.56.1,1.17,1.17,0,0,1,.56.35c.08.14-.08.15-.19.19s-.22.09-.17.18.13-.05.18,0-.11.08.06.2c.22-.08.12.48.19,0,.11.26,0,.24,0,.64.13-.12.29.45.21.84,0,0-.12,0-.15.05-.25.76-.74.88-1.25,1.37-.08,0-.38.2-.31,0a1,1,0,0,1-.26.34c-.41.18.36-.34,0-.25.05.09-.33.47-.53.73.18,0,.57-.46.76-.71.15.15-.12.68-.62,1.25s-.29.07-.34.16c-.88.72-.49.91-1.28,1.39-.37.14-.19-.19-.32-.21a6.28,6.28,0,0,1,.87-.63l-.35.21a1.87,1.87,0,0,1,.47-.46c-.31.11-1.45,1.22-2.18,1.7-.09.13-.26.34-.12.3l.19-.2c.27-.08-.28.45,0,.26a5.25,5.25,0,0,1-.77,1l-.18,0s.29-.19.35-.33c-.09.21-.67.45-.68.76l.32-.2-.29.54a.46.46,0,0,1-.17.26c.23,0,0-.05.28-.07-.07,0-.09,0-.07-.06s0,0,0-.06l.12-.13c.18-.2.34-.38.11-.29.37-.11.44-.37.85-.56-.05,0-.17,0,.09-.22a.32.32,0,0,1,0-.09l0,0h0s0,0,0,0a.38.38,0,0,1-.18.08c0-.23.48-.62.6-.8s0,.11.1.07L249,201c.1.07.58-.25.22.14l.36-.3a2.36,2.36,0,0,0,.71-.55c.19-.13.35-.47.26-.27l.53-.55h0a10.38,10.38,0,0,1,1.84-1.59,4.9,4.9,0,0,1,.72-.69l.15,0a2.85,2.85,0,0,0,.55-1.24.87.87,0,0,0,.23-.41,2.36,2.36,0,0,0,.1-.83,1.42,1.42,0,0,0-.43-1,2.68,2.68,0,0,0-.79-.5l-.07.11a2.28,2.28,0,0,0-1.61.11l.06.1a5.14,5.14,0,0,0-1.76.9c0-.07.17-.2.29-.26a2.4,2.4,0,0,0-.93.91,3.4,3.4,0,0,1-.78.89.93.93,0,0,1-.3.32.08.08,0,0,0,0,0l-.05.06-.21.14.19-.12c-.09.11-.22.27-.34.44l-.15,0,0,0c-.17.12-.06.15.08.14a.82.82,0,0,0-.13.24c-.26,0-.32.44-.62.46,0,.17-.64.81-.56,1,0,0-.07,0,0-.06a1.65,1.65,0,0,0-.43.49l-.18,0-.19.51c-.27.16-.39.21-.27-.09-.37.66-.34.49-.66,1l0-.09c-.15.13-.34.44-.5.45a1.5,1.5,0,0,0-.37.13l-.11,0-.1-.09-.22-.22a18.19,18.19,0,0,1-1.53-1.5c0,.37-.34-.5-.53-.36,0-.1-.12-.25.08-.16-.53-.38-.65-.73-1.11-.89,0-.1.17,0,.15-.05s-.19-.1-.21-.17.11,0,.2.07a1.45,1.45,0,0,0-.5-.34.43.43,0,0,0-.29.08.76.76,0,0,0-.48-.53c0-.13-.08-.32.18,0-.11-.15-.77-1.21-.92-1.12a.84.84,0,0,0-.27-.29l-.36-.41a1.13,1.13,0,0,0-.66-.33l.17.07c-.29.11-.54,0-1,.09v0a1.33,1.33,0,0,0-.71.23c-.08.09-.21.11-.63.49l.14,0c.07.12-.1.26-.27.52a1.28,1.28,0,0,0-.2.93l.06-.22a2.08,2.08,0,0,1-.07.65,1.2,1.2,0,0,0,.06.74c0,.09-.11-.09-.17-.2.19.51.29.5.33.46s.09-.08.35.11c0,.13-.27.06.07.33.13.19,1.22.53,1.52.88-.06-.11-.12-.23.13-.13s.6.8,1,.95c0,.06,0,.08,0,.09a6.26,6.26,0,0,0,1,.74c-.11.49,1.48,1.28,1.18,1.53l.47.47h0s.11.1.1.14a.27.27,0,0,0-.06.1.58.58,0,0,0,0,.19c-.1,0-.08,0-.09,0l-.15.09-.2.15-.29.24a5.8,5.8,0,0,0-.52.65l-.14,0a16.27,16.27,0,0,0-1.7,1.35.18.18,0,0,1,0-.1c-.69.74-2.11,1.26-2.1,1.83l-.44.5c.69-.52,0,.22.36.05-.24.23-.77.45-.47.17l.07,0c-.05-.27-.89.6-1,.52a2.65,2.65,0,0,0-.76,1.36,1.69,1.69,0,0,0,.33,1.13,4.36,4.36,0,0,0,.64.78,2.12,2.12,0,0,0,1,.56,1.58,1.58,0,0,0,1.23-.31l-.3,0a2.35,2.35,0,0,0,.51-.41c.11-.07.28-.08-.07.26a.83.83,0,0,0,.39-.6c.57-.48,0,.36.12.2l.2-.24-.07,0a1.32,1.32,0,0,1,.41-.61c.24-.16.19,0,.27-.07s0,0,.13-.1.38-.26.57-.42l-.32.07c.21-.26.52-.43.17-.34.54-.11,2-1.7,2.2-1.85a4.53,4.53,0,0,1,.92-1c-.12.07-.29,0,.06-.29.09.36.71-.42,1.14-.4-.17,0,.07-.17.3-.32a1,1,0,0,0,.22-.18s0-.08-.07-.09c.24-.09.06.11.22.12s.11-.1.16-.07a1.58,1.58,0,0,1,.15.12l.44.47c.35.38.7.81,1.11,1.18,0,0,0-.19.18-.08l.26.56c.17.14.32,0,.5.34,0-.06,0-.16.08-.07a15.91,15.91,0,0,0,1.11,1.21l1.08,1.23a19.43,19.43,0,0,1,2.05,2.69c-.15-.29,0-.14.16,0-.1-.13.08-.08.1-.14a7.37,7.37,0,0,0,.64.76c.12,0,.34.14.59.26s.52.19.59.13l-.34-.08c.25,0,.12-.16,0-.33s-.23-.38-.14-.47c-.47-.05-.67-.86-1.31-1.2-.06-.15.15,0,.13-.05-.19-.06-.34-.21-.56-.55l0,0c-.73-.83-1-1.28-1.77-2.32l0,.15a1.62,1.62,0,0,1-.24-.41c-.34-.12.5.61.17.52a2.56,2.56,0,0,0-.67-.95c-.33-.34-.64-.67-.63-.85-.3-.3,0,.18-.31-.12l0-.13h-.15c-.19-.2-.22-.36-.19-.42a1.73,1.73,0,0,0,.21.17,6.85,6.85,0,0,0-.83-.79l.27.31c-.46-.37-.88-.83-1.34-1.27l-.84-.78-.26-.21c0-.06-.09,0-.15,0l-.15.06a4.48,4.48,0,0,0-.58.29h.13l-.49.31a2,2,0,0,1-.28.15,3.24,3.24,0,0,0-.71.5l0,0a2.92,2.92,0,0,1-.49.52c.13-.21-.42.22-.24,0-.61.73-.28.39-.57,1l-.16,0a1.38,1.38,0,0,1-.39.59c.22-.32-.31.11-.08-.27-.83.54-.9,1.15-1.42,1.23-.16.49.71-.46.56-.25.21-.08-.14.39-.38.58a1.28,1.28,0,0,1-.47.18l-.31.1a1.76,1.76,0,0,0-.45.3,1.42,1.42,0,0,1,.12-.13c-.29.16-.4.47-.74.66,0,.26-.34.35-.24.52l.48-.56a5,5,0,0,0-.34.57,1.34,1.34,0,0,1-.54.57,2.06,2.06,0,0,1,.17-.31c-.16.08-.21.25-.37.27s.09-.17.23-.32a3.24,3.24,0,0,0,.48-.64c-.21.1-.47.72-.48.41a.37.37,0,0,1-.23.37,2.3,2.3,0,0,0-.37.16l0-.12a.26.26,0,0,1-.23,0,.42.42,0,0,0,.19-.09c-.25.07-.37-.33-.64-.54.51.5,0,.22.18.49-.39-.23-.44-.44-.45-.59a1.47,1.47,0,0,0,0-.27l-.07-.27s0,.05,0,.1,0,.11-.08.05a.22.22,0,0,1,0-.19.13.13,0,0,1,.07,0c.16-.42-.16,0-.14-.18.22-.11.09-.29.26-.57l.09.08c.62-.55,0-.34.63-.79l-.15.33.29-.29,0,.15a2.65,2.65,0,0,1,.78-.67c-.13,0-.1-.2.21-.45s0,.18.38-.18a.46.46,0,0,1-.36.36s0,.13,0,.18a3.58,3.58,0,0,0,.74-.57,1.14,1.14,0,0,1-.19.12l.52-.64c.13,0,.07,0,0,.14.12-.11.17-.23.35-.39,0,.12.09.19-.15.44l.53-.57c.07,0,.39-.16.33-.07.37-.24.7-.84,1.2-1.15a.51.51,0,0,1,.13-.17l.65-.47a2.6,2.6,0,0,0,.32-.26l.16-.16.21-.22.64-.3c.33-.31.09-.18-.08-.12s-.26.07.2-.36l.2-.18c.09,0,0-.09,0-.11s0-.08,0-.08.2,0,.11-.1a5.57,5.57,0,0,1-1.42-1.33A3.85,3.85,0,0,1,241.22,202.41Zm-4.66-4.21c.1,0,.32.1.35.2C236.73,198.45,236.69,198.33,236.56,198.2Zm3.07-.08a.63.63,0,0,1-.22-.33A1.45,1.45,0,0,1,239.63,198.12Zm10.19,2.47h0C250.06,200.44,250,200.49,249.82,200.59Zm-.44.32s0,.05,0,.05.1-.13.21-.21C249.55,200.75,249.48,200.78,249.38,200.91ZM238,211.22l-.1,0C238,211.08,238,211.15,238,211.22Z" transform="translate(-167.8 -170.77)"/><path class="cls-3" d="M238.82,197.35a.15.15,0,0,1,0-.08C238.79,197.25,238.77,197.26,238.82,197.35Z" transform="translate(-167.8 -170.77)"/><path class="cls-3" d="M239.78,205.91h0a0,0,0,0,0,0,0Z" transform="translate(-167.8 -170.77)"/><path class="cls-3" d="M253.19,194.5a.26.26,0,0,1-.07-.1S253.12,194.45,253.19,194.5Z" transform="translate(-167.8 -170.77)"/><path class="cls-3" d="M247.48,203.06l.21-.27a1.12,1.12,0,0,1-.24.2S247.56,203,247.48,203.06Z" transform="translate(-167.8 -170.77)"/><path class="cls-3" d="M247.4,204.93a1.31,1.31,0,0,0,.12.11l0,0C247.39,204.83,247.26,204.75,247.4,204.93Z" transform="translate(-167.8 -170.77)"/><path class="cls-3" d="M247,203c-.11,0-.19.11-.29.25l0,0C246.83,203.34,246.87,203.23,247,203Z" transform="translate(-167.8 -170.77)"/><path class="cls-3" d="M246.66,203.32l-.1.12C246.62,203.46,246.61,203.4,246.66,203.32Z" transform="translate(-167.8 -170.77)"/><path class="cls-3" d="M248.9,201.4c-.11.06,0,.15-.05.16C248.84,201.74,249.33,200.94,248.9,201.4Z" transform="translate(-167.8 -170.77)"/><path class="cls-3" d="M246.58,203h.16a.92.92,0,0,1,0-.16Z" transform="translate(-167.8 -170.77)"/><path class="cls-3" d="M248,201.57l-.29.27s0,.06,0,.11C247.79,201.77,248,201.59,248,201.57Z" transform="translate(-167.8 -170.77)"/><path class="cls-3" d="M247.62,202a1.51,1.51,0,0,0-.19.26C247.47,202.15,247.57,202,247.62,202Z" transform="translate(-167.8 -170.77)"/><polygon class="cls-3" points="79.11 31.77 79.21 31.7 79.41 31.5 79.11 31.77"/><path class="cls-3" d="M251.19,198.79l.3-.32c0-.06-.1,0-.21.12S251.11,198.8,251.19,198.79Z" transform="translate(-167.8 -170.77)"/><path class="cls-3" d="M250,199.39a.37.37,0,0,1,.21,0l-.09-.13Z" transform="translate(-167.8 -170.77)"/><path class="cls-3" d="M250.91,198.53c0-.06.39-.51,0-.14C250.89,198.45,250.59,198.76,250.91,198.53Z" transform="translate(-167.8 -170.77)"/><path class="cls-3" d="M252.84,194H253l0-.25C252.92,193.8,252.88,193.88,252.84,194Z" transform="translate(-167.8 -170.77)"/><path class="cls-3" d="M248.85,197.61c.39-.34,0-.2.34-.49,0-.13-.31.24-.26.11C248.76,197.51,248.62,197.6,248.85,197.61Z" transform="translate(-167.8 -170.77)"/><path class="cls-3" d="M248.93,197.23l.07-.14Z" transform="translate(-167.8 -170.77)"/><path class="cls-3" d="M252.06,215.19a3.39,3.39,0,0,0,.38.2l-.23-.17Z" transform="translate(-167.8 -170.77)"/><path class="cls-3" d="M252.89,215.24a1,1,0,0,0,.1.17,1.48,1.48,0,0,0,.27-.16A.66.66,0,0,1,252.89,215.24Z" transform="translate(-167.8 -170.77)"/><path class="cls-3" d="M236.15,197.51l0,0c0,.05,0,.08.12.16A.29.29,0,0,1,236.15,197.51Z" transform="translate(-167.8 -170.77)"/><polygon class="cls-3" points="71.7 29.62 71.65 29.56 71.65 29.77 71.7 29.62"/><path class="cls-3" d="M242.72,203.79c.23-.09,0-.22-.11-.34l-.34-.35a2.74,2.74,0,0,1,.44.55s0,0,0,.07l-.05,0S242.64,203.79,242.72,203.79Z" transform="translate(-167.8 -170.77)"/><path class="cls-2" d="M201.15,184.32l0,0C201.11,184.33,201.15,184.32,201.15,184.32Z" transform="translate(-167.8 -170.77)"/><polygon class="cls-2" points="32.63 13.91 32.64 13.9 32.54 13.96 32.63 13.91"/><path class="cls-2" d="M199.76,185c.08,0,.24-.13.36-.19h0l0-.05C200.05,184.87,199.87,185,199.76,185Z" transform="translate(-167.8 -170.77)"/><path class="cls-2" d="M199.35,185.12s-.07.06.09,0h0Z" transform="translate(-167.8 -170.77)"/><path class="cls-2" d="M199.42,185.09c.07,0,0,0,0,0Z" transform="translate(-167.8 -170.77)"/><path class="cls-2" d="M199.1,185.26l.08-.06s-.11,0-.08,0S199,185.27,199.1,185.26Z" transform="translate(-167.8 -170.77)"/><path class="cls-2" d="M199,185.34l0,0S199.05,185.31,199,185.34Z" transform="translate(-167.8 -170.77)"/><path class="cls-2" d="M199.17,185.24l-.1.07s0,0,.05,0S199.13,185.27,199.17,185.24Z" transform="translate(-167.8 -170.77)"/><path class="cls-2" d="M199.23,185.22c.06,0,.13,0,0,0C199.45,185.14,199.41,185.13,199.23,185.22Z" transform="translate(-167.8 -170.77)"/><path class="cls-2" d="M199.75,185.08l.07,0,.05,0S199.74,185.07,199.75,185.08Z" transform="translate(-167.8 -170.77)"/><path class="cls-2" d="M198.49,185.52s.06,0,.07,0l.06-.05S198.51,185.54,198.49,185.52Z" transform="translate(-167.8 -170.77)"/><path class="cls-2" d="M198.56,185.55l-.09.07C198.56,185.58,198.58,185.56,198.56,185.55Z" transform="translate(-167.8 -170.77)"/><polygon class="cls-2" points="31.25 14.63 31.39 14.51 31.21 14.65 31.25 14.63"/><polygon class="cls-2" points="30.3 14.94 30.34 14.88 30.26 14.98 30.3 14.94"/><path class="cls-2" d="M197.84,185.86c0-.05-.09,0-.05-.06a.56.56,0,0,0-.16.14A.37.37,0,0,1,197.84,185.86Z" transform="translate(-167.8 -170.77)"/><path class="cls-2" d="M197.56,186l.07-.08A.27.27,0,0,0,197.56,186Z" transform="translate(-167.8 -170.77)"/><path class="cls-2" d="M198.29,185.71a.15.15,0,0,0-.1,0l.06,0Z" transform="translate(-167.8 -170.77)"/><path class="cls-2" d="M198.25,185.73h0l-.09,0Z" transform="translate(-167.8 -170.77)"/><path class="cls-2" d="M198.3,185.7h0S198.3,185.71,198.3,185.7Z" transform="translate(-167.8 -170.77)"/><path class="cls-2" d="M198.76,185.52s-.16.14,0,.1S198.69,185.59,198.76,185.52Z" transform="translate(-167.8 -170.77)"/><path class="cls-2" d="M198.38,185.72l.11-.05s0,0,0,0Z" transform="translate(-167.8 -170.77)"/><polygon class="cls-2" points="30.54 14.99 30.58 14.95 30.54 14.97 30.54 14.99"/><path class="cls-2" d="M197.77,186a.49.49,0,0,1-.14.11.82.82,0,0,0,.19-.09S197.83,185.93,197.77,186Z" transform="translate(-167.8 -170.77)"/><path class="cls-2" d="M198,185.85h0S198,185.86,198,185.85Z" transform="translate(-167.8 -170.77)"/><polygon class="cls-2" points="29.26 15.6 29.27 15.61 29.27 15.6 29.26 15.6"/><path class="cls-2" d="M197.84,186a.16.16,0,0,0,.09-.06l-.11.06S197.82,186,197.84,186Z" transform="translate(-167.8 -170.77)"/><path class="cls-2" d="M197.41,186.12h.09S197.41,186.11,197.41,186.12Z" transform="translate(-167.8 -170.77)"/><path class="cls-2" d="M198,185.86h0S198,185.86,198,185.86Z" transform="translate(-167.8 -170.77)"/><path class="cls-2" d="M198,185.86a.13.13,0,0,0,0,.06l.07-.06Z" transform="translate(-167.8 -170.77)"/><path class="cls-2" d="M197.08,186.79s.08-.16.21-.18-.08-.2-.22-.23c0,0,0,0-.07.13.06,0,.27-.08.21,0s-.12,0-.21.07c.09,0-.12.19,0,.26l.1-.11S197,186.8,197.08,186.79Z" transform="translate(-167.8 -170.77)"/><path class="cls-2" d="M197.28,186.27l0,0a.5.5,0,0,1-.19,0c-.06.06-.07.08-.06.1l.22-.11Z" transform="translate(-167.8 -170.77)"/><path class="cls-2" d="M197.51,186.14c0,.06-.09.14,0,.15s.07-.09.13-.15c-.2.13.05,0-.12,0l.11-.07-.13,0h0a0,0,0,0,1,0,0c-.06,0,0,0,0,0h0l-.19.13A.89.89,0,0,0,197.51,186.14Z" transform="translate(-167.8 -170.77)"/><path class="cls-2" d="M198.67,185.75h0S198.64,185.77,198.67,185.75Z" transform="translate(-167.8 -170.77)"/><path class="cls-2" d="M198.57,185.78a.23.23,0,0,1,.07-.06c.05,0,0,0,0,0s.09-.08,0-.05h0a.44.44,0,0,1-.21,0A.31.31,0,0,0,198.57,185.78Z" transform="translate(-167.8 -170.77)"/><path class="cls-2" d="M198.05,186l-.16.12H198l0,0C198.08,186,198.05,186,198.05,186Z" transform="translate(-167.8 -170.77)"/><polygon class="cls-2" points="29.23 15.59 29.22 15.53 29.16 15.65 29.23 15.59"/><polygon class="cls-2" points="29 15.72 28.98 15.67 28.94 15.73 29 15.72"/><path class="cls-2" d="M186.09,196.08l0,.06A.1.1,0,0,0,186.09,196.08Z" transform="translate(-167.8 -170.77)"/><path class="cls-2" d="M186.39,195.79l0,0S186.37,195.8,186.39,195.79Z" transform="translate(-167.8 -170.77)"/><path class="cls-2" d="M191.45,189.86c-.12,0-.27-.07-.2,0l.08.07A.14.14,0,0,1,191.45,189.86Z" transform="translate(-167.8 -170.77)"/><path class="cls-2" d="M188.47,193h0l0-.11Z" transform="translate(-167.8 -170.77)"/><path class="cls-2" d="M188.72,193.41l-.13,0Z" transform="translate(-167.8 -170.77)"/><path class="cls-2" d="M184.64,197.8l0,.11C184.75,197.83,184.68,197.83,184.64,197.8Z" transform="translate(-167.8 -170.77)"/><path class="cls-2" d="M194.54,187.84a.38.38,0,0,0-.18.06C194.46,187.89,194.56,187.91,194.54,187.84Z" transform="translate(-167.8 -170.77)"/><path class="cls-2" d="M185.4,195.18s0,.07,0,.08S185.42,195.19,185.4,195.18Z" transform="translate(-167.8 -170.77)"/><path class="cls-2" d="M194.18,188h0a.5.5,0,0,1,.14-.1A.16.16,0,0,0,194.18,188Z" transform="translate(-167.8 -170.77)"/><path class="cls-2" d="M179.83,204.39h0Z" transform="translate(-167.8 -170.77)"/><path class="cls-2" d="M178.62,206.49l0-.1Z" transform="translate(-167.8 -170.77)"/><path class="cls-2" d="M195.88,187c.05,0,0,0,0,0Z" transform="translate(-167.8 -170.77)"/><path class="cls-2" d="M196.26,187.07s0,0,0,0S196.25,187.08,196.26,187.07Z" transform="translate(-167.8 -170.77)"/><path class="cls-2" d="M194,188.74Z" transform="translate(-167.8 -170.77)"/><path class="cls-2" d="M196,187l-.07,0Z" transform="translate(-167.8 -170.77)"/><path class="cls-2" d="M196,186.94l0,0S196,186.91,196,186.94Z" transform="translate(-167.8 -170.77)"/><path class="cls-2" d="M195.82,187l.08,0h0Z" transform="translate(-167.8 -170.77)"/><path class="cls-2" d="M182,200.58h0C182,200.64,182,200.62,182,200.58Z" transform="translate(-167.8 -170.77)"/><polygon class="cls-2" points="23.17 20.78 23.17 20.77 23.16 20.77 23.17 20.78"/><path class="cls-2" d="M190.87,191.73c0-.15,0-.17.09-.19l-.23-.19Z" transform="translate(-167.8 -170.77)"/><path class="cls-2" d="M185.44,196.81l.16,0c0,.22-.12.27.06.26-.22-.23.34-.4.11-.63l.11,0s0,0,0,.05c.24,0-.08-.26.11-.38s.14-.05.13,0l.07-.18s.07,0,0,0l.16-.2h0a1,1,0,0,1,0-.24c.08,0,0,.05,0,.07l0-.17c.11,0,.08.17,0,.23.34.14,0-.15.38-.21l-.07.12c.2.08.22-.05.42-.07-.07,0-.43,0-.38-.17.05,0,.1,0,.11-.15.09.08.13,0,.2-.07l.1.12c.05-.11,0-.17,0-.26s.2,0,.3,0c.16-.12-.24,0-.09-.23s.21-.2.29-.4c.12,0,.05.08.11.09v-.17s0,0,.05,0-.1-.12,0-.25c-.09-.16.38,0,.37-.27.07,0,0,.09.11.13a1.6,1.6,0,0,0,.11-.47l.19,0c-.17,0-.15-.22-.12-.4l-.17,0,.11-.21s.05.06.07.14v-.06c.09,0,.12.09.14.19l-.12,0a.54.54,0,0,0,.12.29.11.11,0,0,1,0-.08.06.06,0,0,0,0,.06s0,0,0-.09l.15.1,0-.06.28-.1a1.66,1.66,0,0,1,.2-.85c0,.15.12.17.22.29-.17-.06-.15.22-.29.3a.07.07,0,0,1,.11.06l.12-.31c.08.1.11,0,.21,0-.21-.15.06-.26.1-.4.06.06.09.14,0,.22.24,0,0-.35.2-.34,0,0-.05,0,0,.07s.21-.2.22-.11l0,0c.2-.14.56-.46.47-.65l.14.26-.09-.81c.08.16.44.4.35.6a.25.25,0,0,0,.19-.16s-.23-.14-.2-.18a1.23,1.23,0,0,0,.39,0c-.07,0-.19-.25-.11-.3s.17.2.16.25l0-.35c0,.07.13.18.21.21s.16-.12.19-.18h-.11c.23-.13,0-.45.2-.59,0,.06.13.31.26.26,0-.15-.17-.67,0-.88l.08,0,.1-.17a6.18,6.18,0,0,1,0,1c.11,0,.07.06.18,0s0,.14,0,.17l.29-.18c-.1-.11.12-.27,0-.36l-.2.34a.45.45,0,0,1,.12-.59c.09,0,.12.24.15.28s.13-.22.17-.2l0,.12c.14,0,.06-.28.27-.27,0,0,.24.06.2,0a1.44,1.44,0,0,1-.49-.62,1.84,1.84,0,0,1,.42,0c.15,0,.06.33.19.37a.17.17,0,0,1,0-.12c.07,0,.05.11.14,0s.22-.14,0-.13c.08-.11.13-.06.24-.15-.09,0-.06-.32,0-.42s.06,0,.08.06c.22-.14.37-.16.56-.29,0,0,.15,0,.14.05s0-.09.08-.13-.13.1,0,.15c0-.07.09-.19.15-.29s-.21.12-.27.22a.52.52,0,0,1,.14-.57c.15-.13.13,0,.15,0,.32-.17.12-.38.44-.45.16,0,.11.15.17.19-.12.11-.24.08-.33.14l.13,0a.28.28,0,0,1-.16.14c.13,0,.53-.33.81-.42,0,0,.09-.13,0-.13l-.07.06c-.11,0,.09-.17,0-.14a.61.61,0,0,1,.32-.29l.08.06s-.13,0-.15.06.29,0,.29-.18h-.14c.08-.1.16-.26.31-.3-.1,0,0,0-.17,0,.15.06-.34.18-.14.22-.16,0-.19.06-.38,0,0,0,.08,0,0,.07s0,0,0,0h.09c0,.09-.2.19-.23.26s0,0-.05,0l-.06.1c0-.06-.24,0-.11-.13l-.14.08a.41.41,0,0,0-.27.13c-.08,0-.12.17-.1.08l-.19.17h0c-.22.11-.36.38-.69.4a.58.58,0,0,1-.25.19l-.06-.05c-.08.08-.32.11-.31.2-.22-.11-.47.24-.65.31l.05.09a1.65,1.65,0,0,0-.31.29l.07.07c-.07.15-.34.15-.51.28,0,0,0-.06.08-.07-.35,0-.35.46-.65.46a.12.12,0,0,1-.12.08h0a.94.94,0,0,0-.12.14l-.09-.07h0c-.08,0,0,.07.06.12a.35.35,0,0,0,0,.11c-.15-.11-.11.15-.28,0,0,.1-.24.26-.14.44,0,0,0,0,0,0s-.15.06-.16.14l-.12-.09v.25c-.13,0-.2,0-.19-.17-.08.29-.12.17-.17.43l0-.08c-.06,0-.07.22-.15.19-.25,0-.65.49-1.09.63.25.16-.24,0-.1.2-.07,0-.14,0-.12-.11-.12.19-.32.13-.31.37-.06,0,0-.11-.07-.13s0,.09-.06.08,0-.07,0-.11c-.16.15,0,.32.08.48-.15,0-.18.05-.15.2-.08,0-.17,0-.08-.14-.07.05-.42.25-.32.37s-.08.06-.09.09a3,3,0,0,0-.27.23h.05c.08.19-.07.13-.15.24v0c-.33.11-.06.14-.39.24l.09.07c.16.21-.3.08-.36.28h.09c0,.13-.44-.06-.53,0s0,0,0-.08c-.29.07.09.13,0,.3-.08,0-.11-.19-.22-.11s-.07.46-.31.48c.08,0,.15,0,.12.13s-.43.1-.37.33l-.05,0c0,.11-.17.31-.14.43-.36-.2-.29.61-.56.36l-.2.26,0,0a.34.34,0,0,0-.12.37c-.05,0-.05,0-.06,0-.25.18-.26.21-.29.52l-.1-.06c0,.1-.42.23-.5.54a.06.06,0,0,1,0,0c-.11.33-.72.44-.48.78l-.06.24c.2-.21.11.13.23.08-.05.1-.27.16-.2,0h0c-.13-.16-.27.24-.37.15-.31.46-.71.85-1,1.29l.14,0-.1.15c-.06,0-.13,0,0-.12-.1,0-.07.22,0,.24-.19.19-.08-.17-.12-.1l0,.09h0c0,.1,0,.14,0,.27s-.09,0-.12,0,0,0,0,.05l-.13.19.13,0c0,.11-.11.18,0,.15-.23,0-.49.7-.58.76a.93.93,0,0,1-.17.43s.13,0,0,.12c-.15-.15-.2.2-.37.24.12-.05-.17.4,0,.3-.07.11-.06,0-.14,0-.08.3-.32.58-.45.93,0,0,.07,0,.06.05l-.16.14c0,.07.06.1,0,.2s.05,0,0,0c-.33.64-.52,1.37-.8,2,0-.1,0,0,0,0s0,0,0,0l-.11.29s-.09.31-.09.34l0-.09c0,.12.08-.16.09-.14,0-.14.18-.34.24-.57,0,0,0,.05,0,0a1,1,0,0,1,.1-.25v0a7.9,7.9,0,0,1,.45-.85l0,0a.58.58,0,0,1,.1-.13c0-.11-.12.22-.13.12s.28-.57.41-.6-.07,0,0-.11l0,0,0,0c.05-.08.11-.1.13-.09l0,.08a1.92,1.92,0,0,0,.18-.33l-.08.11a12,12,0,0,0,.55-1.07h0c.09-.26.14-.17.28-.45h0a.4.4,0,0,1,.08-.21c0,.08.14-.09.13,0,.1-.29,0-.15,0-.38H181a.3.3,0,0,1,0-.25c0,.14.13,0,.11.12.28-.2.15-.47.4-.48-.07-.22-.24.17-.23.09s0-.17,0-.25.29,0,.43-.24c0,0,0,0,0,0s.05-.19.19-.24c-.06-.12.09-.12,0-.22l-.11.21c.05-.13,0-.32.18-.46a.85.85,0,0,1,0,.16c.07,0,0-.12.12-.15s-.14.25-.13.43c.09,0,.07-.28.16-.13-.11-.2.17-.19.14-.42l.07.06s0-.1,0-.14l.05.14c0-.17.23-.17.27-.3-.17.22-.13,0-.26,0,.11-.35.32,0,.53-.35,0,.05-.17.12-.16,0a.51.51,0,0,1,.22-.11c.14-.21-.1,0-.08-.15s0-.13.07-.24l.08.06c.24-.19-.12-.19.11-.35l.05.17,0-.13.08.1c0-.17.07-.2.19-.29a.14.14,0,0,1-.06-.23c.11,0,.05.1.15-.06,0,.08.07.16-.06.17s0,.07,0,.1.16-.18.2-.23,0,0-.06,0l0-.3c.06,0,.07,0,.07.09s0-.11.06-.18.12.13.08.24l.09-.26s.17,0,.17,0,.09-.38.27-.47a.25.25,0,0,1,0-.08c.14-.12.33-.16.37-.4l.2,0c.08-.14-.26,0-.13-.26s.16,0,.24,0,0-.36.21-.4C185.51,196.75,185.46,196.76,185.44,196.81Zm1.35-1.49s0,.15-.09.12S186.71,195.33,186.79,195.32Zm2.05-2.31c0,.05,0,.06-.11.06A.17.17,0,0,1,188.84,193Zm6.56-5.68h0C195.31,187.35,195.34,187.35,195.4,187.33Zm.18-.06s0,0,0,0,0,.05-.08.07S195.54,187.31,195.58,187.27Zm-14.36,13.47,0,0C181.23,200.8,181.23,200.77,181.22,200.74Z" transform="translate(-167.8 -170.77)"/><path class="cls-2" d="M188.69,193.36l-.06,0S188.65,193.37,188.69,193.36Z" transform="translate(-167.8 -170.77)"/><polygon class="cls-2" points="16.84 27 16.83 27 16.85 27.02 16.84 27"/><path class="cls-2" d="M193.65,189.48a.14.14,0,0,1-.09,0S193.6,189.51,193.65,189.48Z" transform="translate(-167.8 -170.77)"/><path class="cls-2" d="M196.36,186.67l-.09.07s.07,0,.1,0S196.33,186.69,196.36,186.67Z" transform="translate(-167.8 -170.77)"/><path class="cls-2" d="M197.46,186.51s0,0,0,0l0,0C197.42,186.49,197.39,186.54,197.46,186.51Z" transform="translate(-167.8 -170.77)"/><path class="cls-2" d="M196.58,186.82s.09,0,.16-.06h0C196.7,186.68,196.64,186.75,196.58,186.82Z" transform="translate(-167.8 -170.77)"/><path class="cls-2" d="M196.75,186.74l.07,0S196.79,186.71,196.75,186.74Z" transform="translate(-167.8 -170.77)"/><path class="cls-2" d="M195.76,187.11s0-.08,0-.07S195.59,187.25,195.76,187.11Z" transform="translate(-167.8 -170.77)"/><polygon class="cls-2" points="28.94 16.17 28.88 16.13 28.87 16.2 28.94 16.17"/><path class="cls-2" d="M196.16,187.25l.12-.06s0,0,0,0S196.14,187.23,196.16,187.25Z" transform="translate(-167.8 -170.77)"/><path class="cls-2" d="M196.3,187.15a.18.18,0,0,0,.08-.06Z" transform="translate(-167.8 -170.77)"/><polygon class="cls-2" points="28.8 16.29 28.76 16.3 28.68 16.34 28.8 16.29"/><path class="cls-2" d="M195,188l-.11.1s.05,0,.09,0S195,188,195,188Z" transform="translate(-167.8 -170.77)"/><path class="cls-2" d="M195.45,188s0,0-.08,0l0,.09Z" transform="translate(-167.8 -170.77)"/><path class="cls-2" d="M195.12,188.21s-.12.2,0,.09C195.14,188.26,195.25,188.16,195.12,188.21Z" transform="translate(-167.8 -170.77)"/><polygon class="cls-2" points="25.46 18.55 25.49 18.52 25.37 18.35 25.46 18.55"/><path class="cls-2" d="M192.06,190.89c.17-.06-.05-.14.11-.18,0-.07-.13,0-.13,0C192,190.79,191.93,190.79,192.06,190.89Z" transform="translate(-167.8 -170.77)"/><path class="cls-2" d="M192,190.68s0,0,0-.06A.1.1,0,0,0,192,190.68Z" transform="translate(-167.8 -170.77)"/><polygon class="cls-2" points="10.7 36.1 10.67 36.2 10.69 36.13 10.7 36.1"/><path class="cls-2" d="M178.45,207.08v0l0,.06Z" transform="translate(-167.8 -170.77)"/><path class="cls-2" d="M187.23,195.34l0,0a.11.11,0,0,0-.11,0Z" transform="translate(-167.8 -170.77)"/><polygon class="cls-2" points="18.31 25.51 18.33 25.49 18.2 25.43 18.31 25.51"/><path class="cls-2" d="M185.4,197.28s.06-.09.1-.12S185.26,197.18,185.4,197.28Z" transform="translate(-167.8 -170.77)"/></svg>